<svg width="256" height="56" viewBox="0 0 256 56" fill="none" xmlns="http://www.w3.org/2000/svg">
<path d="M34.88 40.176V54H0.32V-4.29153e-06H17.6V40.176H34.88ZM56.4727 39.312V42.336C57.3367 42.432 58.2007 42.504 59.0647 42.552C59.9287 42.6 60.7927 42.624 61.6567 42.624C67.0327 42.624 72.4567 41.76 77.9287 40.032L79.9447 52.704C73.4647 54.432 67.0807 55.296 60.7927 55.296C52.7287 55.296 46.8967 53.424 43.2967 49.68C39.6967 45.888 37.8967 40.128 37.8967 32.4C37.8967 24.672 39.6967 18.936 43.2967 15.192C46.9447 11.4 52.7767 9.504 60.7927 9.504C64.8247 9.504 68.1847 9.768 70.8727 10.296C73.5607 10.776 75.7207 11.616 77.3527 12.816C79.0327 13.968 80.2087 15.552 80.8807 17.568C81.6007 19.536 81.9607 22.032 81.9607 25.056C81.9607 27.552 81.5287 29.712 80.6647 31.536C79.8487 33.312 78.4567 34.776 76.4887 35.928C74.5207 37.08 71.9047 37.944 68.6407 38.52C65.3767 39.048 61.3207 39.312 56.4727 39.312ZM56.4727 25.776V29.304H60.0007C62.1127 29.304 63.6247 29.088 64.5367 28.656C65.4967 28.224 65.9767 27.216 65.9767 25.632V22.104H62.4487C60.3367 22.104 58.8007 22.32 57.8407 22.752C56.9287 23.184 56.4727 24.192 56.4727 25.776ZM92.5976 12.528C96.2936 10.512 101.358 9.504 107.79 9.504C114.27 9.504 120.198 10.392 125.574 12.168L123.558 23.904C121.302 23.232 119.07 22.752 116.862 22.464C114.654 22.176 112.398 22.032 110.094 22.032C109.422 22.032 108.582 22.056 107.574 22.104C106.614 22.152 105.51 22.248 104.262 22.392V25.128C106.902 25.128 109.614 25.272 112.398 25.56C115.182 25.8 117.702 26.424 119.958 27.432C122.262 28.392 124.134 29.856 125.574 31.824C127.062 33.744 127.806 36.384 127.806 39.744C127.806 42.096 127.542 44.208 127.014 46.08C126.486 47.904 125.67 49.368 124.566 50.472C123.414 51.576 122.214 52.464 120.966 53.136C119.766 53.808 118.182 54.288 116.214 54.576C114.678 54.816 113.022 54.984 111.246 55.08C109.518 55.224 107.646 55.296 105.63 55.296C98.5736 55.296 92.1176 54.456 86.2616 52.776L88.4216 40.536C90.8696 41.256 93.3896 41.808 95.9816 42.192C98.5736 42.576 101.286 42.768 104.118 42.768C105.414 42.768 106.638 42.744 107.79 42.696C108.99 42.648 110.142 42.552 111.246 42.408V39.672C106.638 39.672 102.774 39.384 99.6536 38.808C96.5816 38.184 94.0856 37.248 92.1656 36C90.2936 34.752 88.9496 33.12 88.1336 31.104C87.3656 29.088 86.9816 26.688 86.9816 23.904C86.9816 18.336 88.8536 14.544 92.5976 12.528ZM138.019 12.528C141.715 10.512 146.779 9.504 153.211 9.504C159.691 9.504 165.619 10.392 170.995 12.168L168.979 23.904C166.723 23.232 164.491 22.752 162.283 22.464C160.075 22.176 157.819 22.032 155.515 22.032C154.843 22.032 154.003 22.056 152.995 22.104C152.035 22.152 150.931 22.248 149.683 22.392V25.128C152.323 25.128 155.035 25.272 157.819 25.56C160.603 25.8 163.123 26.424 165.379 27.432C167.683 28.392 169.555 29.856 170.995 31.824C172.483 33.744 173.227 36.384 173.227 39.744C173.227 42.096 172.963 44.208 172.435 46.08C171.907 47.904 171.091 49.368 169.987 50.472C168.835 51.576 167.635 52.464 166.387 53.136C165.187 53.808 163.603 54.288 161.635 54.576C160.099 54.816 158.443 54.984 156.667 55.08C154.939 55.224 153.067 55.296 151.051 55.296C143.995 55.296 137.539 54.456 131.683 52.776L133.843 40.536C136.291 41.256 138.811 41.808 141.403 42.192C143.995 42.576 146.707 42.768 149.539 42.768C150.835 42.768 152.059 42.744 153.211 42.696C154.411 42.648 155.563 42.552 156.667 42.408V39.672C152.059 39.672 148.195 39.384 145.075 38.808C142.003 38.184 139.507 37.248 137.587 36C135.715 34.752 134.371 33.12 133.555 31.104C132.787 29.088 132.403 26.688 132.403 23.904C132.403 18.336 134.275 14.544 138.019 12.528ZM196.113 39.312V42.336C196.977 42.432 197.841 42.504 198.705 42.552C199.569 42.6 200.433 42.624 201.297 42.624C206.673 42.624 212.097 41.76 217.569 40.032L219.585 52.704C213.105 54.432 206.721 55.296 200.433 55.296C192.369 55.296 186.537 53.424 182.937 49.68C179.337 45.888 177.537 40.128 177.537 32.4C177.537 24.672 179.337 18.936 182.937 15.192C186.585 11.4 192.417 9.504 200.433 9.504C204.465 9.504 207.825 9.768 210.513 10.296C213.201 10.776 215.361 11.616 216.993 12.816C218.673 13.968 219.849 15.552 220.521 17.568C221.241 19.536 221.601 22.032 221.601 25.056C221.601 27.552 221.169 29.712 220.305 31.536C219.489 33.312 218.097 34.776 216.129 35.928C214.161 37.08 211.545 37.944 208.281 38.52C205.017 39.048 200.961 39.312 196.113 39.312ZM196.113 25.776V29.304H199.641C201.753 29.304 203.265 29.088 204.177 28.656C205.137 28.224 205.617 27.216 205.617 25.632V22.104H202.089C199.977 22.104 198.441 22.32 197.481 22.752C196.569 23.184 196.113 24.192 196.113 25.776ZM228.062 54V10.8H236.702L241.454 15.624C244.91 12.456 249.182 10.416 254.27 9.504L255.278 25.848C254.606 25.848 253.79 25.944 252.83 26.136C251.87 26.328 250.886 26.568 249.878 26.856C248.918 27.144 248.03 27.504 247.214 27.936C246.398 28.32 245.774 28.776 245.342 29.304V54H228.062Z" fill="#006241"/>
</svg>
