<svg width="current" height="current" viewBox="0 0 24 25" fill="none" xmlns="http://www.w3.org/2000/svg">
<path d="M6 19.5H9V13.5H15V19.5H18V10.5L12 6L6 10.5V19.5ZM6 21.5C5.45 21.5 4.97933 21.3043 4.588 20.913C4.196 20.521 4 20.05 4 19.5V10.5C4 10.1833 4.071 9.88333 4.213 9.6C4.35433 9.31667 4.55 9.08333 4.8 8.9L10.8 4.4C10.9833 4.26667 11.175 4.16667 11.375 4.1C11.575 4.03333 11.7833 4 12 4C12.2167 4 12.425 4.03333 12.625 4.1C12.825 4.16667 13.0167 4.26667 13.2 4.4L19.2 8.9C19.45 9.08333 19.646 9.31667 19.788 9.6C19.9293 9.88333 20 10.1833 20 10.5V19.5C20 20.05 19.8043 20.521 19.413 20.913C19.021 21.3043 18.55 21.5 18 21.5H13V15.5H11V21.5H6Z" fill="current"/>
</svg>
