<svg width="current" height="current" viewBox="0 0 24 25" fill="none" xmlns="http://www.w3.org/2000/svg">
<g clip-path="url(#clip0_522_1066)">
<path d="M16 11.5C17.66 11.5 18.99 10.16 18.99 8.5C18.99 6.84 17.66 5.5 16 5.5C14.34 5.5 13 6.84 13 8.5C13 10.16 14.34 11.5 16 11.5ZM8 11.5C9.66 11.5 10.99 10.16 10.99 8.5C10.99 6.84 9.66 5.5 8 5.5C6.34 5.5 5 6.84 5 8.5C5 10.16 6.34 11.5 8 11.5ZM8 13.5C5.67 13.5 1 14.67 1 17V18.5C1 19.05 1.45 19.5 2 19.5H14C14.55 19.5 15 19.05 15 18.5V17C15 14.67 10.33 13.5 8 13.5ZM16 13.5C15.71 13.5 15.38 13.52 15.03 13.55C15.05 13.56 15.06 13.58 15.07 13.59C16.21 14.42 17 15.53 17 17V18.5C17 18.85 16.93 19.19 16.82 19.5H22C22.55 19.5 23 19.05 23 18.5V17C23 14.67 18.33 13.5 16 13.5Z" fill="current"/>
</g>
<defs>
<clipPath id="clip0_522_1066">
<rect width="24" height="24" fill="white" transform="translate(0 0.5)"/>
</clipPath>
</defs>
</svg>
