<svg width="current" height="current" viewBox="0 0 24 25" fill="none" xmlns="http://www.w3.org/2000/svg">
<g clip-path="url(#clip0_514_589)">
<path d="M12.0005 22.5C13.1005 22.5 14.0005 21.6 14.0005 20.5H10.0005C10.0005 21.6 10.8905 22.5 12.0005 22.5ZM18.0005 16.5V11.5C18.0005 8.43 16.3605 5.86 13.5005 5.18V4.5C13.5005 3.67 12.8305 3 12.0005 3C11.1705 3 10.5005 3.67 10.5005 4.5V5.18C7.63054 5.86 6.00054 8.42 6.00054 11.5V16.5L4.71054 17.79C4.08054 18.42 4.52054 19.5 5.41054 19.5H18.5805C19.4705 19.5 19.9205 18.42 19.2905 17.79L18.0005 16.5Z" fill="current"/>
</g>
<defs>
<clipPath id="clip0_514_589">
<rect width="24" height="24" fill="white" transform="translate(0 0.5)"/>
</clipPath>
</defs>
</svg>
