<svg width="current" height="current" viewBox="0 0 24 25" fill="none" xmlns="http://www.w3.org/2000/svg">
<g clip-path="url(#clip0_492_300)">
<path d="M19.5006 12.5C19.5006 12.27 19.4906 12.05 19.4706 11.82L21.3306 10.41C21.7306 10.11 21.8406 9.55 21.5906 9.11L19.7206 5.88C19.4706 5.44 18.9306 5.26 18.4706 5.46L16.3206 6.37C15.9506 6.11 15.5606 5.88 15.1506 5.69L14.8606 3.38C14.8006 2.88 14.3706 2.5 13.8706 2.5H10.1406C9.63064 2.5 9.20064 2.88 9.14064 3.38L8.85064 5.69C8.44064 5.88 8.05064 6.11 7.68064 6.37L5.53064 5.46C5.07064 5.26 4.53064 5.44 4.28064 5.88L2.41064 9.12C2.16064 9.56 2.27064 10.11 2.67064 10.42L4.53064 11.83C4.51064 12.05 4.50064 12.27 4.50064 12.5C4.50064 12.73 4.51064 12.95 4.53064 13.18L2.67064 14.59C2.27064 14.89 2.16064 15.45 2.41064 15.89L4.28064 19.12C4.53064 19.56 5.07064 19.74 5.53064 19.54L7.68064 18.63C8.05064 18.89 8.44064 19.12 8.85064 19.31L9.14064 21.62C9.20064 22.12 9.63064 22.5 10.1306 22.5H13.8606C14.3606 22.5 14.7906 22.12 14.8506 21.62L15.1406 19.31C15.5506 19.12 15.9406 18.89 16.3106 18.63L18.4606 19.54C18.9206 19.74 19.4606 19.56 19.7106 19.12L21.5806 15.89C21.8306 15.45 21.7206 14.9 21.3206 14.59L19.4606 13.18C19.4906 12.95 19.5006 12.73 19.5006 12.5ZM12.0406 16C10.1106 16 8.54064 14.43 8.54064 12.5C8.54064 10.57 10.1106 9 12.0406 9C13.9706 9 15.5406 10.57 15.5406 12.5C15.5406 14.43 13.9706 16 12.0406 16Z" fill="current"/>
</g>
<defs>
<clipPath id="clip0_492_300">
<rect width="24" height="24" fill="white" transform="translate(0 0.5)"/>
</clipPath>
</defs>
</svg>
