<svg width="481" height="178" viewBox="0 0 481 178" fill="none" xmlns="http://www.w3.org/2000/svg">
<path d="M6.2207 124V32.0859H30.3418V104.449H67.793V124H6.2207ZM78.2031 124V32.0859H143.838V51.6367H102.324V68.2676H140.41V87.8184H102.324V104.449H143.711V124H78.2031ZM206.045 60.5234C205.537 54.3027 201.475 50.748 193.223 50.748C185.225 50.748 181.67 53.7949 181.543 58.1113C181.416 62.8086 185.732 65.4746 194.238 67.252L201.855 69.0293C221.66 73.2188 230.42 82.8672 230.547 96.959C230.42 114.986 216.582 125.143 193.35 125.143C169.609 125.143 154.248 114.732 153.994 92.1348H177.1C177.48 100.641 183.447 105.211 192.969 105.211C201.221 105.211 205.664 101.783 205.791 96.959C205.664 92.5156 201.982 89.9766 191.699 87.6914L182.432 85.6602C166.309 82.1055 156.406 74.1074 156.406 59.8887C156.279 42.4961 171.641 30.8164 193.223 30.8164C215.312 30.8164 229.15 42.623 229.277 60.5234H206.045ZM289.961 60.5234C289.453 54.3027 285.391 50.748 277.139 50.748C269.141 50.748 265.586 53.7949 265.459 58.1113C265.332 62.8086 269.648 65.4746 278.154 67.252L285.771 69.0293C305.576 73.2188 314.336 82.8672 314.463 96.959C314.336 114.986 300.498 125.143 277.266 125.143C253.525 125.143 238.164 114.732 237.91 92.1348H261.016C261.396 100.641 267.363 105.211 276.885 105.211C285.137 105.211 289.58 101.783 289.707 96.959C289.58 92.5156 285.898 89.9766 275.615 87.6914L266.348 85.6602C250.225 82.1055 240.322 74.1074 240.322 59.8887C240.195 42.4961 255.557 30.8164 277.139 30.8164C299.229 30.8164 313.066 42.623 313.193 60.5234H289.961ZM324.365 124V32.0859H390V51.6367H348.486V68.2676H386.572V87.8184H348.486V104.449H389.873V124H324.365ZM402.695 124V32.0859H441.797C462.363 32.0859 475.82 43.7656 475.82 63.1895C475.82 75.8848 469.98 84.8984 460.078 89.5957L478.867 124H452.588L436.338 93.4043H426.816V124H402.695ZM426.816 74.4883H436.211C445.352 74.4883 450.557 71.1875 450.557 63.1895C450.557 55.0645 445.352 51.3828 436.211 51.3828H426.816V74.4883Z" fill="url(#paint0_linear_133_137)"/>
<path d="M24.8955 140.678V145.591H15.0693V159.721C19.4683 159.664 22.8198 159.417 26.4189 158.769L27.0283 163.644C22.4199 164.558 18.1924 164.711 11.8701 164.673H8.89941V140.678H24.8955ZM37.3877 137.708V173.051H31.2939V154.465H23.4102V149.514H31.2939V137.708H37.3877ZM69.9131 139.422V144.22H63.5146C63.8193 147.781 65.8569 151.438 71.1699 153.171L68.2373 157.855C64.4478 156.732 61.9341 154.465 60.4297 151.609C58.8682 154.77 56.2402 157.303 52.2031 158.503L49.0801 153.704C54.7549 152.009 56.8306 147.972 57.1924 144.22H50.7559V139.422H69.9131ZM79.4727 159.988V172.937H73.3789V164.825H54.9834V159.988H79.4727ZM79.4727 137.708V158.655H73.3789V150.657H68.999V145.706H73.3789V137.708H79.4727ZM113.94 137.708V172.937H108.228V137.708H113.94ZM106.399 138.431V171.528H100.725V155.57H96.0781C94.1357 159.531 90.9365 162.94 85.8711 165.815L82.4814 161.549C89.2417 157.55 91.9839 153.132 92.6885 146.582H84.6904V141.745H98.7061C98.7061 145.001 98.4395 148.01 97.792 150.771H100.725V138.431H106.399ZM125.366 166.196L121.824 177.355H116.987L118.739 166.196H125.366ZM152.902 140.678V145.591H143.076V159.721C147.475 159.664 150.827 159.417 154.426 158.769L155.035 163.644C150.427 164.558 146.199 164.711 139.877 164.673H136.906V140.678H152.902ZM165.395 137.708V173.051H159.301V154.465H151.417V149.514H159.301V137.708H165.395ZM188.703 167.834H201.462V166.31H188.703V167.834ZM207.479 137.784V158.122H201.424V137.784H207.479ZM177.582 152.18C184.057 152.18 192.436 152.18 199.786 151.304L200.091 155.57C197.691 155.989 195.235 156.275 192.778 156.484V159.912H188.703V161.778H201.462V159.34H207.479V172.632H182.647V159.34H186.723V156.827C183.714 156.96 180.819 156.979 178.229 156.979L177.582 152.18ZM192.626 139.84C192.626 142.43 194.53 145.173 200.243 146.163L197.653 150.733C193.75 149.99 191.122 148.315 189.579 146.049C188.037 148.581 185.352 150.486 181.2 151.304L178.572 146.658C184.438 145.591 186.342 142.697 186.342 139.84V138.66H192.626V139.84ZM241.947 137.708V172.937H236.234V137.708H241.947ZM234.406 138.431V171.528H228.731V155.57H224.085C222.143 159.531 218.943 162.94 213.878 165.815L210.488 161.549C217.249 157.55 219.991 153.132 220.695 146.582H212.697V141.745H226.713C226.713 145.001 226.446 148.01 225.799 150.771H228.731V138.431H234.406ZM253.373 166.196L249.831 177.355H244.994L246.746 166.196H253.373ZM280.909 140.678V145.591H271.083V159.721C275.482 159.664 278.833 159.417 282.433 158.769L283.042 163.644C278.434 164.558 274.206 164.711 267.884 164.673H264.913V140.678H280.909ZM293.401 137.708V173.051H287.308V154.465H279.424V149.514H287.308V137.708H293.401ZM313.473 139.955C318.233 139.955 321.318 144.906 321.356 153.018C321.318 161.207 318.233 166.158 313.473 166.158C308.75 166.158 305.703 161.207 305.741 153.018C305.703 144.906 308.75 139.955 313.473 139.955ZM313.473 145.744C312.025 145.744 311.302 147.839 311.34 153.018C311.302 158.236 312.025 160.293 313.473 160.293C314.958 160.293 315.758 158.236 315.758 153.018C315.758 147.839 314.958 145.744 313.473 145.744ZM336.248 137.708V172.937H330.421V155.76H328.364V171.414H322.613V138.127H328.364V150.847H330.421V137.708H336.248ZM352.93 146.544C352.892 151.761 354.948 157.931 361.194 160.75L357.843 165.51C354.015 163.835 351.463 160.654 349.959 156.827C348.417 161.092 345.789 164.615 341.771 166.424L338.267 161.626C344.627 158.693 346.722 152.257 346.722 146.544V145.934H339.752V140.983H359.48V145.934H352.93V146.544ZM367.326 137.708V150.657H372.087V155.722H367.326V172.937H361.194V137.708H367.326ZM382.941 138.622C388.388 138.584 392.539 142.049 392.539 146.81C392.539 151.533 388.388 154.961 382.941 154.961C377.457 154.961 373.268 151.533 373.306 146.81C373.268 142.049 377.457 138.584 382.941 138.622ZM382.941 143.535C380.771 143.573 379.171 144.601 379.209 146.81C379.171 148.981 380.771 150.086 382.941 150.086C385.112 150.086 386.636 148.981 386.636 146.81C386.636 144.601 385.112 143.573 382.941 143.535ZM402.632 137.708V155.113H396.5V137.708H402.632ZM402.632 156.408V166.653H384.617V167.872H403.394V172.632H378.638V162.273H396.538V161.054H378.562V156.408H402.632ZM434.738 137.708V151.076H439.499V156.065H434.738V172.937H428.683V137.708H434.738ZM426.969 142.735V147.572H406.44V142.735H413.715V138.355H419.809V142.735H426.969ZM416.762 148.943C421.979 148.943 425.979 152.523 425.979 157.512C425.979 162.54 421.979 166.12 416.762 166.12C411.43 166.12 407.507 162.54 407.507 157.512C407.507 152.523 411.43 148.943 416.762 148.943ZM416.762 153.856C414.781 153.856 413.334 155.151 413.372 157.512C413.334 159.988 414.781 161.169 416.762 161.169C418.704 161.169 420.113 159.988 420.113 157.512C420.113 155.151 418.704 153.856 416.762 153.856ZM471.072 137.708V172.937H465.359V137.708H471.072ZM463.531 138.431V171.528H457.856V155.57H453.21C451.268 159.531 448.068 162.94 443.003 165.815L439.613 161.549C446.374 157.55 449.116 153.132 449.82 146.582H441.822V141.745H455.838C455.838 145.001 455.571 148.01 454.924 150.771H457.856V138.431H463.531Z" fill="url(#paint1_linear_133_137)"/>
<defs>
<linearGradient id="paint0_linear_133_137" x1="0" y1="0" x2="480.408" y2="156.813" gradientUnits="userSpaceOnUse">
<stop stop-color="#66760B"/>
<stop offset="0.460619" stop-color="#3A5624"/>
<stop offset="1" stop-color="#022809"/>
</linearGradient>
<linearGradient id="paint1_linear_133_137" x1="6.5" y1="132.167" x2="253.173" y2="389.976" gradientUnits="userSpaceOnUse">
<stop stop-color="#66760B"/>
<stop offset="0.460619" stop-color="#3A5624"/>
<stop offset="1" stop-color="#022809"/>
</linearGradient>
</defs>
</svg>
