<svg width="92" height="92" viewBox="0 0 92 92" fill="none" xmlns="http://www.w3.org/2000/svg">
<path d="M37.5102 71.9852C42.1987 71.9852 46.0048 68.1792 46.0048 63.4907V54.9961H37.5102C32.8217 54.9961 29.0156 58.8022 29.0156 63.4907C29.0156 68.1792 32.8217 71.9852 37.5102 71.9852Z" fill="#0ACF83"/>
<path d="M29 46.4926C29 41.8041 32.8061 37.998 37.4946 37.998H45.9891V54.9961H37.4946C32.8061 54.9961 29 51.19 29 46.5015V46.4926Z" fill="#A259FF"/>
<path d="M29 29.4946C29 24.8061 32.8061 21 37.4946 21H45.9891V37.9981H37.4946C32.8061 37.9981 29 34.192 29 29.5035V29.4946Z" fill="#F24E1E"/>
<path d="M45.9219 21H54.4164C59.1049 21 62.911 24.8061 62.911 29.4946C62.911 34.1831 59.1049 37.9891 54.4164 37.9891H45.9219V21Z" fill="#FF7262"/>
<path d="M63.0001 46.4926C63.0001 51.1811 59.1941 54.9872 54.5056 54.9872C49.8171 54.9872 45.9219 51.1811 45.9219 46.4926C45.9219 41.8041 49.7279 37.998 54.4164 37.998C59.1049 37.998 62.911 41.8041 62.911 46.4926H63.0001Z" fill="#1ABCFE"/>
</svg>
