<svg width="92" height="92" viewBox="0 0 92 92" fill="none" xmlns="http://www.w3.org/2000/svg">
<path d="M45.6773 16C28.7369 16 15 29.7345 15 46.6773C15 60.2315 23.79 71.7306 35.9791 75.7871C37.5122 76.071 38.0752 75.1216 38.0752 74.3113C38.0752 73.5799 38.0465 71.1631 38.0335 68.5997C29.4988 70.4555 27.698 64.9802 27.698 64.9802C26.3025 61.4343 24.2918 60.4916 24.2918 60.4916C21.5086 58.5876 24.5016 58.6265 24.5016 58.6265C27.5822 58.8431 29.2044 61.788 29.2044 61.788C31.9404 66.4779 36.3809 65.1219 38.1315 64.3383C38.4067 62.3553 39.2019 61.0022 40.0791 60.2361C33.2654 59.4602 26.1023 56.8298 26.1023 45.0752C26.1023 41.7261 27.3008 38.9893 29.2633 36.841C28.9447 36.0682 27.8948 32.9481 29.5604 28.7225C29.5604 28.7225 32.1365 27.898 37.9989 31.8671C40.4458 31.1872 43.0702 30.8465 45.6773 30.835C48.2844 30.8465 50.9108 31.1872 53.3624 31.8671C59.2178 27.898 61.7903 28.7225 61.7903 28.7225C63.46 32.9481 62.4096 36.0682 62.091 36.841C64.0579 38.9893 65.2482 41.7258 65.2482 45.0752C65.2482 56.8577 58.0716 59.4523 51.2406 60.2116C52.3409 61.1636 53.3213 63.0307 53.3213 65.8926C53.3213 69.9971 53.2857 73.3008 53.2857 74.3113C53.2857 75.1276 53.8379 76.0842 55.3931 75.783C67.5754 71.722 76.3543 60.227 76.3543 46.6773C76.3543 29.7345 62.6194 16 45.6773 16Z" fill="#161614"/>
</svg>
