<svg width="93" height="93" viewBox="0 0 93 93" fill="none" xmlns="http://www.w3.org/2000/svg">
<path d="M46.3891 76.1802L58.0478 40.3564H34.7305L46.3891 76.1802Z" fill="#E24329"/>
<path d="M46.3931 76.1802L34.7344 40.3564H18.3945L46.3931 76.1802Z" fill="#FC6D26"/>
<path d="M18.3916 40.3564L14.8484 51.2438C14.6911 51.7277 14.6912 52.249 14.8487 52.7328C15.0062 53.2167 15.313 53.6384 15.7252 53.9375L46.3901 76.1802L18.3916 40.3564Z" fill="#FCA326"/>
<path d="M18.3945 40.3564H34.7344L27.7122 18.7798C27.351 17.6697 25.778 17.6697 25.4167 18.7798L18.3945 40.3564Z" fill="#E24329"/>
<path d="M46.3906 76.1802L58.0493 40.3564H74.3892L46.3906 76.1802Z" fill="#FC6D26"/>
<path d="M74.3892 40.3564L77.9323 51.2438C78.0897 51.7277 78.0896 52.249 77.9321 52.7328C77.7746 53.2167 77.4677 53.6384 77.0555 53.9375L46.3906 76.1802L74.3892 40.3564Z" fill="#FCA326"/>
<path d="M74.3907 40.3564H58.0508L65.073 18.7798C65.4342 17.6697 67.0073 17.6697 67.3685 18.7798L74.3907 40.3564Z" fill="#E24329"/>
</svg>
