<svg width="92" height="92" viewBox="0 0 92 92" fill="none" xmlns="http://www.w3.org/2000/svg">
<path d="M72.9993 47.732C72.9993 45.8369 72.8159 43.8808 72.5103 42.0469H46.041V52.8669H61.2012C60.5899 56.3513 58.5726 59.4078 55.5773 61.3639L64.6245 68.3939C69.9428 63.4423 72.9993 56.229 72.9993 47.732Z" fill="#4280EF"/>
<path d="M46.0457 75.1181C53.6258 75.1181 59.9833 72.6117 64.6292 68.3326L55.5819 61.3638C53.0756 63.0755 49.8357 64.0535 46.0457 64.0535C38.7101 64.0535 32.536 59.102 30.2742 52.5L20.9824 59.6522C25.7506 69.1273 35.4091 75.1181 46.0457 75.1181Z" fill="#34A353"/>
<path d="M30.2718 52.439C29.1104 48.9546 29.1104 45.1645 30.2718 41.6801L20.9801 34.4668C17.0066 42.4137 17.0066 51.7666 20.9801 59.6523L30.2718 52.439Z" fill="#F6B704"/>
<path d="M46.0457 30.1267C50.0191 30.0656 53.9314 31.5938 56.8045 34.3447L64.8126 26.2755C59.7388 21.5074 53.0145 18.9399 46.0457 19.0011C35.4091 19.0011 25.7506 24.9918 20.9824 34.4669L30.2742 41.6803C32.536 35.0171 38.7101 30.1267 46.0457 30.1267Z" fill="#E54335"/>
</svg>
