<svg width="92" height="92" viewBox="0 0 92 92" fill="none" xmlns="http://www.w3.org/2000/svg">
<path fill-rule="evenodd" clip-rule="evenodd" d="M38.2989 19.15C29.4996 19.8302 22.0181 20.4253 21.678 20.4678C20.7003 20.6803 19.8077 21.318 19.3826 22.2107L19 22.9758L19.0425 41.4246L19.085 59.8734L19.6376 61.0211C19.9777 61.6587 22.1031 64.6343 24.4411 67.6525C29.0746 73.6887 29.4146 73.9863 31.1575 74.1988C31.6676 74.2413 35.5359 74.0713 39.6592 73.8162C43.8251 73.5612 50.5415 73.1361 54.5373 72.9235C71.6683 71.8608 70.7756 71.9458 71.7958 71.0957C73.0286 70.0755 72.901 71.7758 72.986 49.3312C73.0286 30.3298 72.986 29.0546 72.6885 28.502C72.3909 27.8218 71.7958 27.3967 63.9742 21.9131C58.7456 18.2148 58.3631 18.0448 56.0251 18.0023C55.0474 17.9598 47.0557 18.5124 38.2989 19.15Z" fill="white"/>
<path fill-rule="evenodd" clip-rule="evenodd" d="M38.2989 19.15C29.4996 19.8302 22.0181 20.4253 21.678 20.4678C20.7003 20.6803 19.8077 21.318 19.3826 22.2107L19 22.9758L19.0425 41.4246L19.085 59.8734L19.6376 61.0211C19.9777 61.6587 22.1031 64.6343 24.4411 67.6525C29.0746 73.6887 29.4146 73.9863 31.1575 74.1988C31.6676 74.2413 35.5359 74.0713 39.6592 73.8162C43.8251 73.5612 50.5415 73.1361 54.5373 72.9235C71.6683 71.8608 70.7756 71.9458 71.7958 71.0957C73.0286 70.0755 72.901 71.7758 72.986 49.3312C73.0286 30.3298 72.986 29.0546 72.6885 28.502C72.3909 27.8218 71.7958 27.3967 63.9742 21.9131C58.7456 18.2148 58.3631 18.0448 56.0251 18.0023C55.0474 17.9598 47.0557 18.5124 38.2989 19.15ZM58.0655 21.573C58.8306 21.9131 64.2293 25.6539 64.9944 26.3765C65.207 26.5891 65.292 26.8016 65.1644 26.8866C64.9519 27.0992 31.4976 29.0971 30.5199 28.927C30.0948 28.8845 29.4571 28.6295 29.0746 28.3744C27.5442 27.3117 23.761 24.2086 23.761 23.996C23.761 23.4009 23.6334 23.4009 38.5115 22.2957C41.3596 22.1256 46.078 21.7856 48.9261 21.5305C55.0899 21.0629 56.9178 21.0629 58.0655 21.573ZM68.6927 31.18C68.9477 31.4351 69.1603 31.9026 69.2453 32.3702C69.2878 32.7953 69.3303 40.7019 69.2878 49.8838C69.2453 65.612 69.2028 66.6323 68.9052 67.0573C68.7352 67.3549 68.3951 67.6525 68.0975 67.7375C67.3749 68.035 32.3477 70.0329 31.6251 69.8204C31.285 69.7354 30.8174 69.4378 30.6049 69.1828L30.1798 68.7577L30.1373 51.7542C30.0948 39.8093 30.1373 34.5382 30.2648 34.0706C30.3498 33.7305 30.6474 33.3054 30.8599 33.1354C31.1575 32.9229 33.2404 32.7528 40.3819 32.3277C45.3979 32.0727 53.177 31.6051 57.5979 31.3075C68.2251 30.6699 68.1826 30.6699 68.6927 31.18Z" fill="black"/>
<path fill-rule="evenodd" clip-rule="evenodd" d="M59.2991 37.0031C57.3862 37.1306 55.6859 37.3007 55.5159 37.4282C54.9207 37.7257 54.5807 38.2358 54.4956 38.7885C54.4531 39.3411 54.6232 39.4261 56.5361 39.6811L57.3437 39.7662V47.2902C57.3437 51.7536 57.3012 54.6867 57.1737 54.6017C57.0887 54.5167 54.6232 50.6909 51.6476 46.185C48.672 41.594 46.2065 37.8533 46.1639 37.8533C46.1214 37.8108 44.2085 37.8958 41.8706 38.0658C39.0225 38.2358 37.4497 38.4484 37.1521 38.6184C36.642 38.8735 36.0469 39.8087 36.0469 40.4038C36.0469 40.7864 36.727 40.9989 38.1298 40.9989H38.895V62.5933L37.6622 62.9759C36.7695 63.231 36.4295 63.401 36.2594 63.7836C36.0044 64.3787 36.0044 64.8888 36.3019 64.8888C36.3869 64.8888 38.3849 64.8038 40.6803 64.6337C45.1862 64.3787 45.6963 64.2512 46.1639 63.316C46.334 63.0609 46.4615 62.7634 46.4615 62.6358C46.4615 62.5933 45.8239 62.3808 45.1012 62.2108C44.3361 62.0407 43.5709 61.8282 43.4009 61.8282C43.1033 61.7432 43.1033 61.1905 43.1033 53.624V45.5048L48.4594 53.879C54.0706 62.6783 54.7507 63.6986 55.6434 64.1236C56.7061 64.6763 59.4267 64.2937 60.7869 63.401L61.212 63.1459L61.2545 51.1585L61.297 39.1285L62.2322 38.9585C63.3375 38.7459 63.8476 38.2358 63.8476 37.3432C63.8476 36.7905 63.8051 36.748 63.2949 36.7905C62.9974 36.7905 61.1695 36.9181 59.2991 37.0031Z" fill="black"/>
</svg>
