<svg width="92" height="92" viewBox="0 0 92 92" fill="none" xmlns="http://www.w3.org/2000/svg">
<path fill-rule="evenodd" clip-rule="evenodd" d="M30.9671 52.8468C30.9671 55.8695 28.5277 58.3089 25.505 58.3089C22.4824 58.3089 20.043 55.8612 20.043 52.8468C20.043 49.8324 22.4824 47.3848 25.505 47.3848H30.9671V52.8468ZM33.6941 52.8468C33.6941 49.8242 36.1335 47.3848 39.1561 47.3848C42.1787 47.3848 44.6182 49.8242 44.6182 52.8468V66.4979C44.6182 69.5205 42.1787 71.96 39.1561 71.96C36.1335 71.96 33.6941 69.5205 33.6941 66.4979V52.8468Z" fill="#E01E5A"/>
<path fill-rule="evenodd" clip-rule="evenodd" d="M39.1542 30.9251C36.1316 30.9251 33.6922 28.4857 33.6922 25.4631C33.6922 22.4404 36.1316 20.001 39.1542 20.001C42.1768 20.001 44.6163 22.4404 44.6163 25.4631V30.9251H39.1542ZM39.1542 33.6931C42.1768 33.6931 44.6163 36.1326 44.6163 39.1552C44.6163 42.1778 42.1768 44.6173 39.1542 44.6173H25.4621C22.4395 44.6173 20 42.1696 20 39.1552C20 36.1408 22.4395 33.6931 25.4621 33.6931H39.1542Z" fill="#36C5F0"/>
<path fill-rule="evenodd" clip-rule="evenodd" d="M61.0339 39.1552C61.0339 36.1326 63.4733 33.6931 66.496 33.6931C69.5186 33.6931 71.958 36.1326 71.958 39.1552C71.958 42.1778 69.5186 44.6173 66.496 44.6173H61.0339V39.1552ZM58.307 39.1552C58.307 42.1778 55.8675 44.6173 52.8449 44.6173C49.8223 44.6173 47.3828 42.1778 47.3828 39.1552V25.4631C47.3828 22.4404 49.8223 20.001 52.8449 20.001C55.8675 20.001 58.307 22.4404 58.307 25.4631V39.1552Z" fill="#2EB67D"/>
<path fill-rule="evenodd" clip-rule="evenodd" d="M52.8449 61.0358C55.8675 61.0358 58.307 63.4753 58.307 66.4979C58.307 69.5205 55.8675 71.96 52.8449 71.96C49.8223 71.96 47.3828 69.5205 47.3828 66.4979V61.0358H52.8449ZM52.8449 58.3089C49.8223 58.3089 47.3828 55.8695 47.3828 52.8468C47.3828 49.8242 49.8223 47.3848 52.8449 47.3848H66.537C69.5597 47.3848 71.9991 49.8242 71.9991 52.8468C71.9991 55.8695 69.5597 58.3089 66.537 58.3089H52.8449Z" fill="#ECB22E"/>
</svg>
